<?xml version="1.0" standalone="no"?>
<!DOCTYPE svg PUBLIC "-//W3C//DTD SVG 20010904//EN"
 "http://www.w3.org/TR/2001/REC-SVG-20010904/DTD/svg10.dtd">
<svg version="1.0" xmlns="http://www.w3.org/2000/svg"
 width="521.000000pt" height="521.000000pt" viewBox="0 0 521.000000 521.000000"
 preserveAspectRatio="xMidYMid meet">
<metadata>
Created by potrace 1.14, written by Peter Selinger 2001-2017
</metadata>
<g transform="translate(0.000000,521.000000) scale(0.100000,-0.100000)"
fill="#000000" stroke="none">
<path d="M2477 4864 c-1 -1 -42 -4 -92 -7 -49 -4 -103 -9 -120 -12 -16 -3 -37
-6 -45 -6 -8 -1 -42 -8 -76 -15 -33 -7 -70 -15 -82 -17 -12 -2 -25 -6 -28 -10
-4 -4 -19 -7 -34 -7 -14 0 -31 -5 -38 -12 -7 -7 -12 -9 -12 -6 0 4 -26 -2 -57
-13 -32 -11 -66 -22 -77 -24 -10 -2 -24 -9 -32 -16 -8 -6 -14 -9 -14 -6 0 10
-136 -50 -229 -99 -131 -70 -239 -138 -282 -176 -10 -10 -19 -15 -19 -10 0 4
-4 3 -8 -3 -4 -5 -29 -28 -57 -50 -51 -40 -269 -255 -315 -310 -60 -72 -167
-221 -199 -277 -11 -21 -31 -55 -43 -75 -28 -49 -61 -115 -89 -178 -25 -57
-23 -51 -34 -90 -4 -16 -12 -36 -18 -42 -5 -7 -6 -13 -3 -13 4 0 1 -10 -6 -22
-7 -13 -11 -27 -10 -32 2 -4 -1 -13 -6 -20 -8 -9 -13 -23 -28 -81 -1 -5 -14
-58 -28 -116 -25 -105 -28 -122 -43 -244 -12 -100 -7 -451 7 -485 1 -3 2 -8 2
-11 -1 -4 3 -33 9 -65 5 -33 12 -75 15 -94 15 -100 72 -311 93 -345 3 -5 6
-12 6 -15 5 -44 105 -256 176 -372 57 -94 158 -236 209 -293 84 -95 272 -275
335 -321 22 -16 42 -31 45 -34 6 -7 126 -85 180 -118 60 -36 290 -152 290
-145 0 3 7 0 15 -7 8 -7 15 -9 15 -5 0 4 6 3 13 -2 14 -12 109 -44 118 -40 3
1 12 -3 20 -9 8 -6 39 -17 69 -24 30 -7 60 -15 65 -19 6 -3 19 -6 30 -8 11 -1
38 -6 60 -12 22 -6 65 -13 95 -16 30 -3 62 -8 70 -10 72 -21 456 -21 579 0 14
2 49 7 76 10 46 6 231 49 265 62 8 3 21 7 28 9 8 1 21 6 30 10 9 4 26 9 36 11
11 2 25 8 33 14 7 6 13 9 13 6 0 -27 470 217 540 281 20 18 24 21 85 67 56 42
229 207 300 286 61 69 176 232 229 324 74 131 166 327 181 390 1 6 7 22 13 38
9 22 36 118 57 202 1 6 5 17 8 25 8 21 19 88 22 130 2 19 6 51 9 71 7 43 20
220 19 269 0 70 -16 276 -27 350 -14 93 -19 119 -32 166 -8 28 -16 60 -18 71
-15 75 -86 267 -143 383 -114 235 -247 422 -434 611 -110 110 -342 300 -356
291 -3 -2 -9 0 -12 5 -7 9 -63 47 -71 48 -3 0 -18 9 -35 20 -87 58 -411 193
-500 208 -11 2 -40 9 -65 16 -25 7 -54 15 -65 17 -11 2 -40 8 -65 14 -46 10
-94 17 -185 25 -52 6 -323 13 -328 9z m303 -39 c36 -4 74 -7 84 -7 11 1 28 -4
39 -9 15 -9 18 -8 12 2 -6 8 -4 10 5 4 7 -4 26 -9 42 -11 15 -2 59 -11 96 -20
37 -8 78 -18 91 -20 13 -3 32 -9 41 -14 10 -5 20 -7 23 -4 3 3 12 2 19 -2 7
-5 15 -9 18 -10 3 0 19 -6 35 -13 17 -6 62 -24 100 -38 39 -15 97 -41 130 -58
33 -18 63 -33 68 -33 4 -1 35 -17 68 -37 33 -19 64 -35 70 -35 5 0 9 -4 9 -10
0 -5 6 -10 13 -10 11 0 163 -106 251 -175 34 -27 208 -198 255 -250 37 -42 91
-112 91 -119 0 -4 6 -13 13 -21 18 -20 50 -63 67 -93 9 -15 27 -45 41 -67 47
-75 98 -173 92 -179 -4 -3 -1 -6 5 -6 7 0 12 -5 12 -11 0 -5 11 -34 24 -62 13
-29 32 -72 41 -97 10 -25 21 -54 25 -65 13 -33 23 -59 26 -70 1 -5 10 -39 19
-75 8 -36 18 -74 21 -85 3 -11 7 -30 10 -42 2 -13 7 -35 10 -50 3 -16 7 -48
10 -73 2 -25 6 -61 9 -80 5 -41 18 -250 16 -265 0 -5 -2 -41 -3 -80 -1 -38 -7
-73 -13 -77 -6 -5 -5 -8 3 -8 8 0 10 -5 5 -12 -6 -11 -9 -29 -14 -88 0 -8 -5
-44 -11 -80 -6 -36 -10 -72 -10 -80 -1 -8 -5 -21 -11 -27 -5 -7 -7 -13 -4 -13
3 0 -3 -33 -15 -72 -11 -40 -21 -80 -23 -88 -2 -8 -14 -44 -28 -80 -37 -97
-40 -105 -41 -110 -6 -25 -132 -265 -179 -340 -53 -84 -132 -195 -162 -226 -5
-6 -27 -31 -47 -56 -47 -57 -117 -127 -192 -192 -32 -28 -65 -57 -72 -64 -7
-6 -15 -12 -19 -12 -3 0 -11 -4 -18 -10 -59 -48 -88 -68 -164 -115 -120 -73
-385 -205 -423 -210 -3 0 -30 -10 -60 -22 -58 -23 -232 -70 -290 -79 -90 -13
-156 -22 -170 -23 -8 0 -44 -2 -80 -5 -88 -6 -262 -7 -330 -1 -110 10 -139 13
-177 19 -21 4 -51 9 -68 11 -25 4 -62 11 -72 14 -2 1 -6 2 -10 2 -111 21 -318
96 -463 167 -400 197 -702 472 -927 842 -37 61 -151 281 -154 298 -2 10 -5 18
-31 87 -12 33 -21 63 -20 68 1 4 -3 7 -8 7 -6 0 -10 23 -9 55 3 72 15 72 34
-1 5 -20 78 -199 103 -254 14 -30 26 -57 27 -60 1 -7 50 -100 76 -147 21 -39
78 -130 91 -148 4 -5 32 -41 60 -80 51 -67 234 -256 331 -342 73 -65 203 -155
304 -212 51 -28 95 -51 97 -51 3 0 42 -18 88 -39 127 -61 306 -125 378 -136
14 -2 57 -11 95 -19 141 -30 235 -39 405 -39 130 -1 316 9 330 18 3 1 28 6 55
9 28 4 70 12 95 17 25 6 56 13 69 15 14 3 28 7 31 9 4 2 21 7 40 10 18 3 45
12 61 21 16 8 32 15 36 15 9 2 18 5 126 48 96 38 290 134 307 151 3 3 17 11
31 18 34 18 170 121 239 181 217 190 385 399 498 616 50 98 139 301 147 339 2
10 9 24 16 32 6 8 9 14 6 14 -3 0 3 33 15 73 11 39 21 79 23 87 2 8 4 15 5 15
2 0 5 19 15 100 4 33 9 69 12 80 23 106 22 445 -2 585 -10 57 -24 133 -29 155
-30 135 -53 217 -81 280 -7 17 -32 75 -55 130 -38 90 -115 242 -129 255 -3 3
-13 19 -21 35 -8 17 -30 51 -50 76 -19 26 -44 60 -55 75 -35 50 -261 284 -326
339 -92 76 -169 135 -178 135 -5 0 -11 4 -13 8 -12 28 -333 185 -494 242 -154
55 -146 52 -169 55 -11 2 -67 13 -125 24 -102 22 -128 25 -295 37 -143 10
-260 5 -445 -21 -112 -15 -274 -55 -370 -90 -106 -40 -115 -43 -125 -45 -9 -2
-52 -22 -85 -41 -30 -18 -95 -44 -102 -41 -5 1 -8 -2 -8 -7 0 -5 -9 -13 -21
-16 -51 -17 -241 -143 -305 -204 -12 -11 -24 -18 -26 -16 -6 7 -275 -270 -334
-345 -32 -41 -61 -77 -64 -80 -15 -14 -64 -96 -62 -103 1 -4 -5 -10 -13 -13
-8 -4 -15 -15 -15 -25 0 -10 -4 -19 -8 -19 -4 0 -14 -16 -21 -35 -7 -19 -17
-35 -23 -35 -6 0 -8 -3 -5 -6 4 -4 -11 -39 -33 -79 -21 -40 -36 -76 -33 -79 4
-3 1 -6 -5 -6 -7 0 -12 -8 -12 -18 0 -10 -5 -23 -12 -30 -7 -7 -9 -12 -4 -12
4 0 1 -12 -8 -27 -24 -47 -54 -126 -61 -166 -4 -20 -11 -40 -16 -43 -5 -3 -7
-9 -4 -14 3 -5 1 -29 -6 -52 -10 -37 -19 -94 -22 -135 0 -7 -3 -13 -6 -13 -3
0 -7 -17 -9 -37 -1 -21 -6 -41 -11 -46 -6 -6 -6 -19 -1 -33 5 -13 6 -24 1 -24
-5 0 -8 -99 -7 -219 0 -121 -2 -217 -6 -215 -4 3 -5 13 -3 24 2 11 -2 20 -8
20 -7 0 -6 4 3 10 8 5 10 10 4 10 -10 0 -14 28 -17 132 -1 32 -6 58 -10 58 -5
0 -5 5 -1 12 4 7 9 50 10 98 3 77 11 185 14 185 3 0 10 46 14 92 2 26 5 48 6
48 1 0 3 11 6 25 2 14 12 50 21 80 9 30 17 64 18 75 2 11 12 41 23 68 12 26
19 47 17 47 -3 0 5 18 16 40 11 21 22 45 23 52 1 7 12 36 25 63 61 130 96 200
101 205 8 7 44 64 45 70 0 5 35 57 105 159 24 35 73 92 133 154 15 16 27 31
27 33 0 5 13 18 123 117 80 72 162 137 172 137 3 0 18 11 33 25 15 14 30 25
35 25 4 0 41 22 81 50 41 27 76 46 80 43 3 -4 6 -2 6 3 0 6 16 16 35 24 19 8
35 17 35 22 0 4 3 7 8 6 6 -1 60 22 147 62 50 23 151 62 165 64 9 1 20 5 26 8
10 7 22 9 98 23 16 3 34 9 40 12 6 4 17 8 26 9 8 1 31 5 50 9 19 4 49 8 65 10
17 2 41 6 54 9 13 3 67 8 120 11 52 4 97 7 98 9 5 4 241 -2 303 -9z m-30 -98
c36 -3 94 -10 129 -17 34 -6 77 -13 94 -15 18 -2 43 -7 57 -10 14 -4 34 -8 45
-9 11 -2 20 -4 20 -5 0 -3 13 -6 56 -14 38 -7 240 -77 269 -92 14 -8 63 -33
110 -55 47 -23 92 -48 101 -56 8 -8 19 -14 23 -14 20 0 255 -171 264 -192 2
-4 9 -8 14 -8 16 0 278 -269 313 -321 16 -24 50 -71 75 -104 64 -86 64 -86
136 -233 63 -130 139 -323 149 -385 3 -16 9 -35 13 -41 3 -6 7 -15 8 -21 1 -5
5 -26 8 -45 16 -87 25 -154 20 -161 -2 -4 0 -10 6 -14 6 -3 10 -18 10 -33 0
-37 8 -246 11 -252 1 -3 1 -9 0 -13 -1 -4 -3 -50 -5 -101 -3 -51 -7 -108 -10
-127 -4 -19 -8 -50 -10 -69 -8 -61 -17 -113 -33 -175 -8 -33 -16 -67 -17 -75
-2 -8 -6 -22 -9 -30 -3 -8 -13 -37 -23 -65 -10 -27 -21 -55 -26 -61 -4 -6 -5
-14 -1 -17 3 -4 2 -7 -3 -7 -5 0 -10 -8 -11 -19 -1 -10 -20 -58 -42 -106 -23
-48 -41 -89 -41 -91 0 -10 -149 -246 -189 -299 -74 -96 -235 -265 -332 -348
-116 -99 -351 -247 -449 -284 -25 -9 -47 -20 -50 -23 -7 -9 -231 -91 -252 -93
-10 -1 -18 -5 -18 -10 0 -4 -4 -6 -8 -3 -4 2 -37 -4 -74 -14 -84 -23 -195 -41
-265 -44 -18 -1 -33 -3 -33 -6 0 -3 -19 -6 -42 -7 -135 -3 -260 -3 -308 1 -86
8 -173 18 -195 22 -11 3 -36 7 -55 10 -19 3 -62 12 -95 21 -33 8 -64 16 -70
17 -83 19 -248 83 -390 151 -199 97 -347 205 -530 389 -183 184 -310 355 -388
524 -13 28 -30 58 -37 67 -7 8 -10 15 -7 15 4 0 -4 21 -18 47 -13 26 -21 51
-19 55 3 4 1 8 -3 8 -9 0 -38 87 -35 103 1 4 -3 7 -10 7 -6 0 -9 3 -6 6 4 3 2
20 -3 37 -6 18 -12 43 -15 56 -3 13 -9 32 -15 43 -5 10 -7 18 -5 18 3 0 1 11
-4 26 -6 14 -12 37 -15 52 -7 37 -14 72 -20 102 -21 98 -22 593 -1 628 2 4 7
30 10 57 4 28 9 58 12 67 3 9 7 27 10 40 7 32 12 52 14 58 1 3 2 8 1 12 -1 11
74 228 100 288 22 52 78 158 129 245 13 22 28 49 34 60 55 101 301 376 431
480 28 22 52 43 55 46 17 19 179 124 255 165 50 26 93 52 96 57 3 5 10 9 15 9
5 0 27 9 49 19 43 19 143 60 160 64 6 1 19 5 30 9 59 22 72 27 90 30 11 3 43
10 70 16 28 6 64 14 80 16 17 3 39 7 50 9 11 2 36 6 55 9 19 3 46 8 60 11 14
3 63 8 110 11 46 3 85 6 87 7 3 4 184 -1 253 -6z m-2280 -2576 c0 -6 -4 -12
-8 -15 -5 -3 -9 1 -9 9 0 8 4 15 9 15 4 0 8 -4 8 -9z"/>
<path d="M2558 4641 c-58 -18 -65 -40 -10 -35 60 5 121 25 116 38 -6 15 -49
14 -106 -3z"/>
<path d="M2465 4540 c-4 -6 -4 -68 -1 -138 4 -70 7 -153 7 -185 2 -70 19 -83
52 -41 27 34 55 104 51 128 -1 10 -10 34 -20 54 -10 20 -19 53 -21 72 -2 19
-7 44 -13 55 -5 11 -10 29 -12 40 -4 22 -32 32 -43 15z"/>
<path d="M2894 4487 c-43 -20 -76 -69 -89 -132 -3 -16 -9 -43 -12 -60 -10 -48
-7 -93 8 -121 19 -36 90 -75 137 -76 36 0 114 31 126 51 3 5 -9 20 -28 34 -29
23 -37 25 -63 15 -16 -6 -42 -8 -56 -4 -23 5 -27 12 -27 41 0 48 19 136 36
162 17 27 63 24 95 -6 19 -18 30 -19 83 -12 12 2 -3 53 -22 75 -45 49 -124 63
-188 33z"/>
<path d="M2118 4493 c-36 -6 -53 -28 -55 -77 -3 -73 -11 -137 -17 -144 -4 -3
-24 14 -47 39 -110 121 -95 111 -136 94 -38 -16 -57 -35 -45 -45 4 -3 9 -12
11 -20 4 -15 45 -140 84 -260 21 -62 23 -65 51 -62 32 4 56 23 56 44 0 8 -11
43 -25 78 -14 35 -25 66 -25 69 0 3 20 -16 44 -42 34 -38 49 -47 69 -45 38 5
42 13 44 80 3 93 4 92 54 -73 11 -36 21 -41 47 -25 7 4 16 6 19 3 2 -3 13 2
23 10 17 15 17 18 -7 87 -13 39 -26 76 -27 81 -7 32 -30 92 -40 104 -6 8 -10
17 -8 20 7 13 -21 91 -32 90 -6 -1 -23 -4 -38 -6z"/>
<path d="M3400 4348 c-10 -12 -57 -90 -156 -255 l-43 -73 29 -20 c33 -24 70
-26 70 -5 0 8 5 15 10 15 6 0 10 4 10 9 0 6 9 25 20 44 l21 35 44 -22 c24 -11
47 -27 50 -34 2 -7 -9 -41 -26 -74 l-31 -62 22 -18 c28 -23 66 -23 74 0 8 20
28 55 43 73 16 20 133 231 133 241 0 7 -72 48 -85 48 -3 0 -5 -4 -5 -9 0 -5
-14 -34 -32 -65 -21 -37 -35 -53 -42 -46 -6 6 -18 10 -28 10 -10 0 -18 4 -18
8 0 5 -11 14 -26 20 l-25 12 28 50 c15 28 31 50 36 50 14 0 7 33 -10 47 -38
29 -52 34 -63 21z"/>
<path d="M1497 4218 c-24 -17 -25 -22 -14 -46 6 -15 15 -31 19 -37 5 -5 32
-44 61 -85 38 -54 63 -80 94 -95 23 -11 46 -30 52 -42 12 -26 26 -30 35 -8 3
9 0 15 -8 15 -11 0 -68 90 -66 105 1 13 -33 82 -67 135 -47 73 -69 85 -106 58z"/>
<path d="M3885 3979 c-16 -13 -42 -35 -57 -49 -15 -14 -65 -59 -112 -100 -47
-41 -86 -82 -86 -91 0 -15 46 -71 137 -167 l33 -34 30 22 c16 12 30 27 30 33
0 7 -23 37 -50 67 -52 57 -57 75 -27 94 14 9 26 2 72 -47 l55 -58 25 18 c41
30 39 43 -15 94 -54 51 -60 67 -32 92 17 16 20 15 53 -17 19 -18 46 -48 61
-67 l27 -34 29 30 c28 27 29 32 17 55 -7 14 -46 60 -87 103 l-73 79 -30 -23z"/>
<path d="M1206 3956 c-21 -12 -32 -26 -28 -32 4 -6 43 -40 87 -74 131 -104
148 -135 101 -179 -39 -36 -54 -29 -176 85 -36 34 -75 66 -86 72 -19 10 -23 8
-27 -10 -3 -11 1 -30 9 -43 8 -12 11 -25 7 -28 -3 -4 -1 -7 5 -7 7 0 12 -8 12
-18 0 -10 20 -39 44 -63 118 -118 169 -130 263 -61 50 37 73 97 59 157 -2 11
-5 25 -5 30 -2 25 -119 130 -192 172 l-37 21 -36 -22z"/>
<path d="M2528 3945 c-2 -2 -34 -5 -73 -8 -147 -10 -337 -66 -480 -141 -133
-69 -198 -117 -310 -230 -126 -127 -184 -207 -254 -346 -18 -36 -36 -72 -41
-80 -9 -15 -21 -46 -26 -65 -1 -5 -8 -23 -15 -40 -6 -16 -13 -34 -13 -40 -3
-25 -22 -114 -25 -117 -6 -8 -12 -137 -12 -243 0 -127 1 -139 26 -305 10 -60
73 -238 97 -273 11 -15 16 -27 13 -27 -4 0 3 -12 14 -26 12 -15 21 -32 21 -40
0 -7 3 -14 8 -16 4 -1 25 -30 47 -63 62 -93 238 -265 335 -328 144 -93 265
-147 415 -186 112 -30 174 -36 345 -34 135 1 181 6 275 28 11 2 44 10 73 16
28 6 52 15 52 19 0 4 6 7 14 7 43 0 252 108 341 177 153 118 281 266 369 426
36 66 114 265 122 310 3 14 7 33 10 42 18 61 28 165 27 288 0 123 -6 174 -29
267 -8 32 -17 68 -19 81 -3 12 -14 44 -24 70 -24 63 -32 87 -32 89 1 2 -15 33
-34 70 -84 162 -255 361 -401 467 -134 97 -378 205 -502 222 -26 3 -50 8 -53
10 -14 8 -254 26 -261 19z m73 -194 c22 -1 89 -71 114 -118 11 -21 24 -41 30
-45 5 -4 7 -8 2 -8 -4 0 0 -17 9 -37 8 -21 17 -45 19 -53 2 -8 10 -35 18 -60
21 -62 44 -154 56 -225 6 -33 13 -73 17 -90 28 -133 41 -752 16 -777 -14 -14
-78 -18 -302 -18 -223 0 -330 6 -344 20 -14 14 -16 50 -17 268 0 182 8 362 17
371 2 2 23 5 46 6 48 3 187 15 202 18 5 1 17 8 27 16 16 13 16 15 -8 34 -14
11 -33 21 -42 22 -9 1 -34 7 -56 13 -22 6 -64 10 -94 9 -35 -2 -55 1 -58 9 -3
7 1 39 8 71 6 32 13 67 14 78 2 11 9 40 16 65 7 25 14 53 16 63 14 76 97 269
132 304 11 12 21 26 21 30 0 18 55 41 89 38 20 -2 43 -4 52 -4z m-315 -103
c-29 -65 -73 -186 -81 -228 -2 -8 -4 -15 -5 -15 -1 0 -4 -11 -6 -25 -3 -14 -9
-42 -15 -63 -5 -21 -12 -50 -14 -65 -4 -26 -10 -56 -21 -112 -3 -14 -6 -31 -8
-39 -4 -23 -34 -32 -201 -58 -85 -13 -263 -71 -378 -123 -27 -12 -56 -19 -65
-15 -10 4 -13 9 -6 13 6 4 16 30 23 57 14 57 89 211 145 298 21 33 80 100 131
150 106 106 125 122 174 150 20 12 39 25 42 30 3 5 9 8 13 8 3 -1 33 12 65 29
65 32 196 79 223 80 14 0 12 -11 -16 -72z m744 13 c48 -23 174 -93 180 -100 3
-4 40 -32 82 -63 42 -32 94 -76 115 -99 21 -23 44 -48 51 -55 6 -7 12 -17 12
-23 0 -6 4 -11 9 -11 5 0 13 -10 17 -22 3 -12 21 -44 38 -72 38 -60 96 -184
98 -206 0 -3 4 -13 9 -22 5 -10 12 -36 15 -59 l6 -40 -39 19 c-125 63 -239
101 -413 138 -19 4 -37 8 -40 9 -3 1 -29 5 -57 9 -29 4 -53 13 -54 19 0 12 -4
36 -14 87 -2 14 -7 41 -10 60 -4 19 -11 53 -17 75 -6 22 -11 49 -13 60 -5 35
-46 157 -81 243 -19 45 -34 86 -34 92 0 10 88 -14 140 -39z m-917 -768 c-3
-53 -4 -329 -2 -463 0 -30 0 -61 0 -68 -1 -10 -12 -12 -43 -7 -24 4 -54 8 -68
10 -14 2 -43 9 -65 15 -53 14 -75 19 -107 25 -15 3 -39 10 -53 15 -14 5 -29 9
-33 8 -4 -1 -14 1 -22 4 -8 4 -24 9 -35 14 -11 4 -22 8 -25 8 -3 1 -34 18 -70
38 -108 61 -142 110 -134 194 6 58 73 113 214 173 45 19 178 61 194 61 9 0 16
3 16 8 0 4 12 7 28 8 15 0 43 3 62 7 19 4 55 10 80 13 25 3 47 8 49 10 11 10
16 -19 14 -73z m1048 52 c38 -6 74 -13 74 -15 0 -1 20 -3 44 -6 24 -2 48 -7
55 -11 6 -4 17 -8 25 -10 24 -3 169 -63 213 -88 24 -13 62 -40 85 -59 41 -36
41 -36 38 -98 -2 -59 -4 -63 -46 -100 -24 -22 -50 -44 -56 -49 -15 -11 -145
-69 -168 -74 -5 -2 -30 -8 -55 -15 -45 -12 -65 -17 -109 -26 -14 -3 -29 -8
-34 -11 -6 -3 -20 -7 -31 -9 -80 -11 -99 -15 -107 -20 -9 -5 -13 15 -10 51 4
45 3 434 -2 480 -5 55 6 79 33 70 10 -3 33 -8 51 -10z m-1477 -681 c54 -19
115 -37 135 -40 20 -4 42 -11 49 -17 6 -5 12 -7 12 -4 0 3 15 1 33 -4 31 -10
55 -14 128 -24 20 -2 47 -8 60 -13 13 -5 30 -7 37 -5 7 3 20 2 30 -2 18 -8 32
-10 187 -20 118 -7 225 -8 388 -1 l118 4 -6 -51 c-4 -28 -11 -61 -16 -74 -5
-13 -7 -23 -4 -23 2 0 -2 -18 -10 -40 -8 -22 -12 -40 -10 -40 2 0 -3 -19 -11
-42 -9 -24 -17 -47 -18 -53 -11 -40 -87 -199 -98 -203 -4 -2 -8 -8 -8 -14 0
-6 -17 -26 -37 -44 -34 -31 -42 -34 -98 -34 l-62 0 -35 53 c-20 28 -50 79 -68
112 -17 33 -47 76 -66 95 -30 32 -71 127 -59 139 3 2 0 10 -6 18 -6 7 -8 13
-4 13 4 0 2 7 -5 15 -9 10 -9 15 -1 15 6 0 11 7 11 15 0 8 -9 15 -20 15 -21 0
-28 -24 -10 -35 7 -5 8 -11 1 -19 -5 -6 -12 -25 -15 -41 -2 -17 -5 -32 -6 -35
-3 -6 -2 -8 4 -47 7 -35 48 -138 87 -215 16 -32 29 -60 29 -64 0 -3 -12 -3
-27 1 -16 4 -35 9 -43 10 -8 2 -15 4 -15 5 0 1 -7 3 -15 5 -29 5 -170 74 -225
110 -30 19 -59 35 -64 35 -5 0 -11 3 -13 8 -1 4 -28 27 -58 51 -46 37 -127
117 -157 156 -40 50 -114 174 -142 235 -72 159 -73 170 -12 143 20 -9 80 -31
135 -49z m1932 -45 c-40 -84 -97 -188 -127 -230 -11 -16 -17 -29 -12 -29 4 0
3 -4 -2 -8 -6 -4 -22 -23 -35 -42 -71 -105 -296 -258 -478 -323 -79 -29 -85
-26 -53 35 11 19 17 39 14 42 -4 3 -1 6 6 6 7 0 10 4 6 9 -3 5 -1 12 4 15 5 4
12 24 16 46 4 22 11 42 16 46 5 3 7 10 4 15 -4 5 -1 9 5 9 6 0 9 4 6 9 -3 4
-1 23 5 42 13 43 23 90 34 158 3 19 8 38 10 42 3 4 7 24 10 45 6 52 13 57 80
68 11 2 45 8 75 14 30 7 64 13 75 15 24 5 74 17 95 23 8 3 16 5 17 5 2 0 22 7
45 15 24 9 50 17 58 19 8 2 47 17 85 33 63 28 70 29 73 13 2 -10 -13 -51 -32
-92z"/>
<path d="M4164 3501 c-2 -3 -11 -6 -19 -7 -8 -1 -34 -11 -58 -22 -23 -11 -73
-32 -111 -48 -37 -15 -70 -33 -73 -40 -3 -10 19 -67 32 -82 2 -2 40 15 86 37
45 23 84 40 85 38 2 -2 -19 -26 -46 -54 -37 -38 -47 -56 -43 -72 5 -22 40 -47
50 -37 3 2 16 1 29 -4 14 -6 24 -6 24 -1 0 10 26 9 36 -2 4 -4 2 -8 -4 -8 -21
-2 -26 -4 -59 -22 -18 -10 -36 -18 -40 -19 -50 -9 -58 -24 -32 -57 26 -31 71
-31 142 2 31 14 58 26 60 26 1 0 32 13 69 29 36 17 68 28 71 26 2 -2 12 5 21
15 17 19 17 22 0 58 l-19 38 -95 0 c-52 0 -98 4 -101 8 -3 5 20 36 52 69 72
77 77 92 34 118 -29 18 -78 24 -91 11z"/>
<path d="M888 3452 c-50 -26 -89 -89 -94 -153 -5 -77 25 -120 114 -162 67 -32
75 -34 124 -41 37 -5 101 26 125 60 23 34 53 118 53 150 0 29 -47 73 -112 106
-108 53 -162 64 -210 40z m128 -106 c33 -14 41 -21 37 -36 -3 -11 -2 -31 1
-45 5 -20 11 -25 26 -20 27 9 26 -13 -2 -36 -27 -24 -31 -24 -98 4 -98 40
-111 60 -82 130 11 25 16 28 45 24 17 -3 51 -12 73 -21z"/>
<path d="M4043 2204 c-7 -3 -17 -21 -23 -40 -10 -28 -9 -37 4 -50 9 -8 16 -20
16 -25 0 -5 6 -9 13 -9 12 0 47 -34 47 -46 0 -3 10 -14 22 -23 29 -24 16 -40
-33 -39 -22 0 -43 -2 -46 -5 -3 -4 -14 -2 -24 4 -11 5 -19 6 -19 1 0 -5 -14
-6 -31 -4 -21 3 -30 1 -25 -6 3 -6 -2 -15 -11 -21 -10 -6 -14 -11 -10 -11 5 0
1 -10 -7 -22 -17 -24 -6 -48 21 -48 8 0 11 -5 7 -12 -4 -6 -3 -8 3 -5 6 4 30
0 54 -9 24 -9 49 -17 54 -18 6 -1 33 -12 60 -25 94 -43 142 -59 151 -53 5 4
17 23 27 42 l16 35 -52 23 c-29 13 -65 29 -82 36 l-30 13 49 1 c66 2 80 8 92
41 10 26 8 31 -25 62 -53 48 -57 60 -14 39 103 -52 134 -54 148 -11 7 22 -3
67 -12 57 -3 -3 -24 5 -47 17 -42 24 -183 88 -201 92 -5 1 -23 7 -38 13 -30
13 -35 13 -54 6z"/>
<path d="M960 2163 c-14 -7 -46 -22 -72 -33 -109 -47 -133 -165 -56 -269 11
-15 16 -32 12 -47 -5 -19 -1 -26 22 -34 22 -9 29 -8 36 3 4 8 25 18 45 22 58
11 185 62 217 88 27 22 29 29 29 88 0 91 -32 147 -104 184 -30 16 -95 15 -129
-2z m105 -89 c24 -10 41 -54 36 -94 -1 -10 -100 -60 -118 -60 -5 0 -16 11 -23
25 -7 13 -17 22 -22 19 -4 -3 -8 0 -8 5 0 6 -9 11 -19 11 -33 0 -32 28 2 49
71 43 119 57 152 45z"/>
<path d="M1283 1732 c-15 -15 -44 -39 -63 -54 -35 -26 -105 -93 -127 -120 -17
-23 -10 -122 10 -143 10 -9 22 -25 27 -35 5 -10 30 -28 55 -40 76 -37 101 -27
230 85 17 14 49 42 73 62 47 41 49 47 25 71 -45 44 -48 45 -91 5 -159 -148
-189 -165 -224 -125 -43 48 -34 65 91 167 33 28 61 53 61 58 0 4 6 7 14 7 26
0 25 29 0 60 -32 37 -45 38 -81 2z"/>
<path d="M3754 1683 c-56 -66 -55 -65 -97 -110 -43 -46 -48 -36 49 -118 32
-27 87 -77 122 -110 90 -84 90 -84 126 -43 103 117 139 158 145 163 3 4 -10
20 -29 37 l-35 30 -60 -65 -60 -65 -24 19 c-27 22 -32 11 47 97 17 20 32 39
32 44 0 13 -43 58 -54 57 -6 0 -28 -23 -49 -50 -21 -28 -45 -53 -53 -56 -14
-5 -54 22 -54 36 0 4 26 32 57 64 l57 57 -29 30 c-16 17 -34 30 -40 30 -6 0
-29 -21 -51 -47z"/>
<path d="M1684 1402 c-5 -4 -36 -47 -70 -97 -33 -49 -82 -121 -108 -159 l-47
-68 42 -31 c33 -25 43 -28 50 -16 5 8 19 30 31 49 12 19 26 40 31 45 20 24
147 219 147 225 0 14 -66 58 -76 52z"/>
<path d="M3450 1394 c-7 -8 -19 -14 -27 -14 -27 0 -25 -30 6 -80 17 -28 31
-56 31 -63 0 -7 -20 -24 -44 -39 -50 -30 -50 -30 -99 55 -15 26 -30 47 -32 47
-14 0 -75 -44 -75 -54 0 -7 13 -32 28 -57 15 -24 59 -97 96 -161 37 -65 70
-118 72 -118 13 0 74 35 78 45 2 7 -8 32 -24 56 -46 72 -46 81 3 107 23 12 47
22 53 22 6 0 24 -26 40 -57 16 -32 30 -60 32 -62 5 -9 73 29 78 43 5 13 -11
47 -67 146 -8 14 -16 27 -19 30 -5 5 -19 28 -68 112 -30 54 -45 63 -62 42z"/>
<path d="M1931 1246 c-7 -8 -14 -24 -16 -37 -3 -12 -12 -45 -22 -73 -9 -28
-18 -53 -18 -56 -1 -3 -5 -12 -8 -20 -21 -48 -56 -175 -49 -181 9 -9 82 -32
86 -27 6 7 46 142 46 155 0 7 3 13 8 13 4 0 8 -25 9 -55 2 -71 6 -81 39 -89
22 -6 32 -1 57 24 17 18 36 41 41 53 6 11 18 22 26 24 13 4 13 3 0 -6 -8 -6
-12 -11 -7 -11 4 0 1 -13 -8 -30 -8 -16 -15 -31 -14 -32 0 -2 -4 -16 -10 -31
-27 -70 -26 -73 23 -89 26 -9 49 -12 51 -8 3 5 14 39 26 77 11 37 23 75 26 83
3 8 8 21 10 28 1 6 5 18 6 25 2 6 6 19 9 27 50 138 50 145 -4 154 -7 1 -19 5
-25 9 -13 8 -29 -6 -106 -96 -58 -67 -63 -63 -71 63 -4 70 -14 100 -32 100
-22 0 -28 1 -45 11 -11 6 -21 4 -28 -5z"/>
<path d="M2920 1173 c-8 -3 -22 -7 -30 -10 -8 -4 -18 -6 -22 -5 -4 1 -24 -18
-46 -43 -32 -37 -38 -50 -36 -82 5 -78 32 -180 56 -215 26 -37 96 -63 145 -53
21 5 41 8 45 7 4 -1 25 17 47 40 53 53 50 79 -7 84 -27 3 -44 -1 -49 -10 -13
-21 -46 -33 -73 -26 -21 5 -28 17 -42 68 -27 102 -27 124 2 139 31 16 77 17
82 2 4 -12 78 27 78 40 0 10 -29 36 -59 51 -27 14 -67 19 -91 13z"/>
<path d="M2475 1115 c-2 -5 -6 -93 -9 -193 -3 -101 -8 -188 -12 -193 -3 -5 7
-9 23 -10 15 0 38 -2 51 -3 13 -2 25 1 28 6 3 4 7 66 10 136 2 70 6 152 8 182
4 76 -1 85 -53 85 -24 1 -45 -4 -46 -10z"/>
</g>
</svg>
